PathFileType	4	(X/Y/Z)	./resultDataOpenSim/trcMotMarkerGrf/sub06/qtm-01-02.trc
DataRate	CameraRate	NumFrames	NumMarkers	Units	OrigDataRate	OrigDataStartFrame	OrigNumFrames
250.000000	250.000000	8	24	m	250.000000	127	504
Frame#	Time	L.Toe.Tip			R.Toe.Tip			L.Ankle.Lat			R.Ankle.Lat			L.Ankle.Med			R.Ankle.Med			L.Heel			R.Heel			L.Knee.Lat			R.Knee.Lat			L.Knee.Med			R.Knee.Med			L.Thigh.Upper			R.Thigh.Upper			L.ASIS			R.ASIS			V.Sacral			L.Acromium			R.Acromium			C7			L.Elbow			R.Elbow			L.Wrist.Lat			R.Wrist.Lat
		X1	Y1	Z1	X2	Y2	Z2	X3	Y3	Z3	X4	Y4	Z4	X5	Y5	Z5	X6	Y6	Z6	X7	Y7	Z7	X8	Y8	Z8	X9	Y9	Z9	X10	Y10	Z10	X11	Y11	Z11	X12	Y12	Z12	X13	Y13	Z13	X14	Y14	Z14	X15	Y15	Z15	X16	Y16	Z16	X17	Y17	Z17	X18	Y18	Z18	X19	Y19	Z19	X20	Y20	Z20	X21	Y21	Z21	X22	Y22	Z22	X23	Y23	Z23	X24	Y24	Z24

127	0.504	-0.20714008	0.097930376	-0.10368679	-0.77069673	0.034888494	0.05969841	-0.33603732	0.087859166	-0.11651956	-0.90149016	0.073418407	0.080500974	-0.33309583	0.10584982	-0.031512179	-0.87793522	0.090846224	-0.0059105177	-0.38892765	0.034795617	-0.061178959	-0.95880826	0.057652563	0.017108282	-0.42495243	0.44683147	-0.11990662	-0.74098304	0.42817229	0.1192316	-0.43597572	0.4366871	0.0050423658	-0.76607574	0.43089806	-0.012701662	-0.59799548	0.79865779	-0.16136632	-0.66762484	0.78552042	0.18146715	-0.53847177	0.84292748	-0.10512202	-0.55990732	0.83648248	0.1414988	-0.73437133	0.91606409	0.0035534314	-0.62915853	1.324273	-0.1695541	-0.59806567	1.3154985	0.18989677	-0.68978852	1.3552933	0.01533705	-0.72569578	1.0233209	-0.2278636	-0.60615302	1.001443	0.28602882	-0.6028829	0.8113375	-0.23018881	-0.38063894	0.89607303	0.26431125
128	0.508	-0.19237941	0.10176866	-0.10291087	-0.77063571	0.034871044	0.059662778	-0.3210562	0.089290969	-0.11640437	-0.90096944	0.074150659	0.080370802	-0.31919942	0.10701732	-0.031458738	-0.87728976	0.091283427	-0.0060606823	-0.37288259	0.034711549	-0.062274612	-0.9584489	0.058747158	0.016847845	-0.41802018	0.44537514	-0.11893714	-0.7369539	0.42737263	0.11906785	-0.42941094	0.43498379	0.0060991079	-0.76179187	0.43020852	-0.012925163	-0.59037948	0.79682948	-0.16148139	-0.66245253	0.7844551	0.18124587	-0.53165372	0.84113828	-0.10539233	-0.55396008	0.83485254	0.14144415	-0.72871203	0.91448812	0.0024769696	-0.62291789	1.3224547	-0.16986728	-0.59206842	1.3138216	0.1897106	-0.68368557	1.353695	0.015014093	-0.72032957	1.021881	-0.22755873	-0.59790023	0.99972508	0.28604702	-0.59912921	0.80905129	-0.23093025	-0.37195891	0.89646735	0.26364307
129	0.512	-0.17823211	0.10550436	-0.10205165	-0.7705724	0.034854549	0.059632609	-0.30671718	0.090763627	-0.1161448	-0.90030965	0.07495032	0.080281087	-0.30588343	0.10809142	-0.031345774	-0.87662627	0.091769256	-0.0061624344	-0.3574923	0.034753627	-0.063064934	-0.95808712	0.059922817	0.016675324	-0.41094517	0.44402283	-0.11799769	-0.73284255	0.42654622	0.1189021	-0.42284187	0.43341146	0.007111744	-0.75744915	0.42950104	-0.01314316	-0.58288107	0.79497129	-0.16161749	-0.65722438	0.78332272	0.18104902	-0.5247634	0.83931377	-0.10560597	-0.54798643	0.8332263	0.14137788	-0.72198253	0.91287499	0.0021008431	-0.61663633	1.3206498	-0.17019032	-0.58605663	1.3121337	0.18951244	-0.67759238	1.3521022	0.014682934	-0.71474921	1.0204132	-0.22729997	-0.58985539	0.99802057	0.28610094	-0.59534942	0.80673998	-0.23166763	-0.36335028	0.89679687	0.26296748
130	0.516	-0.16468201	0.10905026	-0.10111282	-0.77050421	0.034837714	0.059610522	-0.29298903	0.092205522	-0.11574989	-0.8996098	0.075801944	0.080240787	-0.29304978	0.10907035	-0.031080619	-0.87593538	0.092302795	-0.0062179185	-0.34285424	0.034916095	-0.063377922	-0.95772875	0.061186245	0.016614252	-0.40373909	0.44279295	-0.11710616	-0.72865888	0.42569529	0.1187369	-0.41627884	0.43196545	0.0080704591	-0.7530159	0.42875828	-0.013338578	-0.57567056	0.79307801	-0.16179759	-0.65176512	0.78202605	0.18102577	-0.51777194	0.8374465	-0.10571511	-0.54195512	0.83160531	0.14129238	-0.71454062	0.91125298	0.0026076117	-0.61033185	1.3188591	-0.17052497	-0.58002681	1.3104345	0.1892927	-0.67151293	1.35053	0.01435361	-0.70889511	1.018895	-0.22711899	-0.58199769	0.9963397	0.28616539	-0.59151475	0.80441736	-0.23236014	-0.35474392	0.89705112	0.26226242
131	0.52	-0.15172879	0.11233557	-0.10014129	-0.77042942	0.034821147	0.059597867	-0.2798249	0.093539737	-0.11522111	-0.89904567	0.076665639	0.080250662	-0.28061534	0.10998702	-0.030604035	-0.87521603	0.092890052	-0.0062300329	-0.32895875	0.035133756	-0.063289586	-0.95735795	0.062543624	0.016653311	-0.39641962	0.44170206	-0.11627035	-0.7244131	0.42482204	0.11857453	-0.40971453	0.43063146	0.0089710725	-0.74845787	0.42796263	-0.013500312	-0.56872504	0.79115912	-0.16201005	-0.64606434	0.78060857	0.181295	-0.51070138	0.83557076	-0.10574675	-0.53581352	0.82999382	0.14117191	-0.70718	0.90965928	0.0037158351	-0.60399775	1.3170756	-0.17087297	-0.57398189	1.3087276	0.18905708	-0.66537957	1.3489761	0.014015019	-0.70289419	1.017344	-0.22698155	-0.57424979	0.99467582	0.28620349	-0.58764339	0.80208629	-0.23301799	-0.34612762	0.89722388	0.26152905
132	0.524	-0.13937412	0.11528324	-0.099179713	-0.77034787	0.03480686	0.059595356	-0.26722072	0.094700886	-0.11456512	-0.89864603	0.077535142	0.080307202	-0.26858116	0.11085601	-0.029949406	-0.87448374	0.09353916	-0.0061916985	-0.31574352	0.035342818	-0.062950624	-0.95695969	0.063993769	0.016773181	-0.38900609	0.44075123	-0.11549721	-0.72011758	0.42392859	0.11841656	-0.4031272	0.42939008	0.0098080231	-0.74374426	0.42711811	-0.013626508	-0.56188525	0.7892384	-0.16222091	-0.64022455	0.7791803	0.18167704	-0.50359967	0.83372477	-0.10576852	-0.52952217	0.82839738	0.14100697	-0.70038319	0.90810356	0.0048544711	-0.59762779	1.3153006	-0.17123366	-0.56793559	1.3070209	0.18881573	-0.65907366	1.347432	0.013621912	-0.69693139	1.0158046	-0.22682337	-0.56654471	0.99301426	0.28619396	-0.58378661	0.79974965	-0.23369833	-0.33758624	0.89732661	0.26080338
133	0.528	-0.12761664	0.11781363	-0.098239106	-0.77026506	0.034792047	0.059602739	-0.25519926	0.095644397	-0.11380269	-0.89826503	0.078452236	0.080412795	-0.25701257	0.11165199	-0.029188624	-0.87375519	0.094254243	-0.0060870481	-0.30315416	0.035490329	-0.062439017	-0.95653339	0.065534184	0.016959335	-0.3815064	0.43992671	-0.11479211	-0.71578814	0.42301692	0.11826363	-0.39649193	0.42821918	0.01057518	-0.73884037	0.42624771	-0.013728643	-0.55495814	0.78736505	-0.16239708	-0.63432389	0.77776246	0.18177911	-0.49649627	0.83192703	-0.10581929	-0.52307832	0.82682131	0.1408036	-0.6940844	0.90657382	0.0055689838	-0.59123011	1.3135474	-0.17160521	-0.56189523	1.3053244	0.18856783	-0.65260309	1.345918	0.013142236	-0.69103989	1.0142971	-0.22662711	-0.55885603	0.99135195	0.28614114	-0.57994675	0.79742627	-0.23443603	-0.3291956	0.89737568	0.26011543
134	0.532	-0.11645199	0.11986854	-0.097306998	-0.77019247	0.034768223	0.059618787	-0.24377809	0.096344847	-0.11296666	-0.89777168	0.079455392	0.080573357	-0.245976	0.11232403	-0.028373375	-0.87301804	0.095037329	-0.0059144653	-0.29119151	0.035532684	-0.061745896	-0.956091	0.067167916	0.017216175	-0.37388494	0.4392089	-0.11414055	-0.71144039	0.42208871	0.11811674	-0.38978647	0.42709739	0.011267445	-0.73372073	0.42536431	-0.01381883	-0.54786387	0.7855834	-0.16252271	-0.6282394	0.77620174	0.18133311	-0.48939288	0.83018392	-0.10589094	-0.51650868	0.82527051	0.1405801	-0.68799574	0.90507401	0.0057554849	-0.58481988	1.3118278	-0.17198898	-0.55585073	1.3036451	0.18830715	-0.646172	1.3444683	0.012606008	-0.68511247	1.0128072	-0.22642693	-0.55119997	0.98971111	0.28606459	-0.57600427	0.7951434	-0.23519604	-0.32094934	0.89737779	0.25946121
